Genre: Crime | Drama | Thriller
 
http://www.imdb.com/title/tt1448762/

Plot: A couple on the verge of a nasty divorce attempt to sell their empty love nest and move on with their lives, separately. After a successful open house they are horrified to discover, days later, that a potential buyer didn't leave their home. While Alice is being held captive in the basement, the unannounced house guest moves in upstairs. She senses her capture is being kept a rebellious secret. She knows her way only way out if she can only get out alive.

Cast:
Anna Paquin ... Jennie
Stephen Moyer ... Josh
Tricia Helfer ... Lila
Rachel Blanchard ... Alice
Brian Geraghty ... David
Jessica Collins ... Lauren
Shaun Guttridge ... Police Officer
Mia Riverton ... Meredith
Larry Sullivan ... Oscar
Gabriel Olds ... Carl
William Morse ... Home Buyer
Naja Hill ... Bethany
Gerald Downey ... Seth
Bonnie Kathleen Ryan ... Alex's Wife
Ashley Walsh ... Woman
Paula Christensen
Cary Alexander ... Alex (as Cary Kazemi)
Eddie Martinez ... Jose
Kris Wheeler ... Brian
Dave Abrams ... Police Officer
Damon Christopher ... Detective
Ryan March ... Hayden
Jennifer Cummings ... EMT
Timothy Thomas Brown ... Real Estate Agent
 
http://img812.imageshack.us/img812/6721/wrathp.jpg

Open House 2010 BRRip H264.mp4

File Size
Format : MPEG-4
Format profile : Base Media
Codec ID : isom
File size : 1.56 GiB
Duration : 1h 26mn
Overall bit rate : 2 578 Kbps

Video
ID : 1
Format : AVC
Format/Info : Advanced Video Codec
Format profile : High@L4.1
Format settings, CABAC : Yes
Format settings, ReFrames : 3 frames
Codec ID : avc1
Codec ID/Info : Advanced Video Coding
Duration : 1h 26mn
Bit rate mode : Variable
Bit rate : 1 999 Kbps
Maximum bit rate : 14.8 Mbps
Width : 1 280 pixels
Height : 544 pixels
Display aspect ratio : 2.35:1
Frame rate mode : Constant
Frame rate : 23.976 fps
Resolution : 24 bits
Colorimetry : 4:2:0
Scan type : Progressive
Bits/(Pixel*Frame) : 0.120
Stream size : 1.21 GiB (77%)

Audio #1
ID : 2
Format : AAC
Format/Info : Advanced Audio Codec
Format version : Version 4
Format profile : LC
Format settings, SBR : No
Codec ID : 40
Duration : 1h 26mn
Bit rate mode : Variable
Bit rate : 128 Kbps
Maximum bit rate : 138 Kbps
Channel(s) : 2 channels
Channel positions : L R
Sampling rate : 48.0 KHz
Resolution : 16 bits
Stream size : 79.6 MiB (5%)

Audio #2
ID : 3
Format : AAC
Format/Info : Advanced Audio Codec
Format version : Version 4
Format profile : LC
Format settings, SBR : No
Codec ID : 40
Duration : 1h 26mn
Bit rate mode : Variable
Bit rate : 448 Kbps
Maximum bit rate : 464 Kbps
Channel(s) : 6 channels
Channel positions : Front: L C R, Rear: L R, LFE
Sampling rate : 48.0 KHz
Resolution : 16 bits
Stream size : 278 MiB (17%)

English SRT : ----

Language : English